<svg xmlns="http://www.w3.org/2000/svg" width="680" height="600" viewBox="0 0 680 600">
  <path id="Subtraction_1" data-name="Subtraction 1" d="M680,600H356.221a284.3,284.3,0,0,0,86.015-14.724c34.872-11.512,69.654-29.829,103.381-54.443.046-.031,4.714-3.137,11.863-8.5,6.6-4.954,16.745-12.907,27.547-22.657a284.333,284.333,0,0,0,31.166-32.548c10.674-13.3,18.318-26.141,22.721-38.174.567-1.548,1.181-3.2,1.893-4.85a143.051,143.051,0,0,0,8.461-28.653c2.4-12.426,14.186-56.625,23.546-90.7,19.5-70.974-1.353-145.645-55.771-199.744-1.395-1.386-2.814-2.765-4.218-4.1-1.823-1.731-3.238-3.186-4.451-4.577-6.476-7.415-30.571-32.119-68.744-38.7-20.037-3.452-45.96-8.1-68.757-13.457-11.5-2.7-21.406-5.4-29.433-8.028-9.023-2.95-16.022-5.916-20.8-8.814a128.05,128.05,0,0,0-17.307-8.269,267.949,267.949,0,0,0-26.309-8.953C361,5.549,336.546.086,311.018,0H680V600Zm-329.607,0H0V293.341c.041,30.248,9.624,78.221,55.05,134.988,72.3,90.356,179.723,141.348,200.523,150.653,1.536.688,3.024,1.383,4.549,2.125,8.825,4.29,41.417,18.33,90.271,18.892ZM0,292.927H0L0,0H309.819c-14.271.05-27.282,1.818-38.673,5.257a88.994,88.994,0,0,0-9.375,3.415A207.533,207.533,0,0,0,236.136,21.7a315.925,315.925,0,0,0-38.159,26.8,432.9,432.9,0,0,0-46.946,44.755c-24.3,26.733-44.111,41.925-61.593,55.328C58.99,171.927,34.94,190.364,5.657,256.2a64.33,64.33,0,0,0-2.815,9.637A125.642,125.642,0,0,0,0,292.927Z" transform="translate(0 0)" fill="#fff" stroke="#fff" stroke-width="10" />
</svg>
